<svg width="1600" height="1200" viewBox="0 0 1600 1200" fill="none" xmlns="http://www.w3.org/2000/svg">
  <rect width="1600" height="1200" fill="#050914"/>
  <rect width="1600" height="1200" fill="url(#bgGlow)"/>
  <g opacity="0.42">
    <path d="M-120 1020C196 770 446 848 688 670C888 522 1018 214 1752 168" stroke="#2F8CFF" stroke-width="2"/>
    <path d="M-80 1108C248 880 502 920 748 736C994 552 1064 300 1728 268" stroke="#7CC5FF" stroke-width="1.4"/>
  </g>
  <g filter="url(#cardShadow)" transform="translate(350 160) rotate(-12 560 390)">
    <rect x="0" y="0" width="1120" height="780" rx="54" fill="url(#cardFill)"/>
    <rect x="1.5" y="1.5" width="1117" height="777" rx="52.5" stroke="white" stroke-opacity="0.08" stroke-width="3"/>
    <g filter="url(#markShadow)">
      <rect x="324" y="260" width="64" height="206" rx="28" fill="#2F8CFF"/>
      <rect x="420" y="206" width="72" height="318" rx="32" fill="#2F8CFF"/>
      <rect x="532" y="134" width="86" height="462" rx="38" fill="#2F8CFF"/>
      <rect x="664" y="228" width="70" height="278" rx="31" fill="#2F8CFF"/>
      <rect x="770" y="294" width="58" height="146" rx="25" fill="#2F8CFF"/>
      <rect x="246" y="312" width="52" height="102" rx="23" fill="#2F8CFF"/>
      <rect x="862" y="334" width="48" height="76" rx="22" fill="#2F8CFF"/>
    </g>
    <circle cx="902" cy="160" r="92" fill="#2F8CFF" fill-opacity="0.08"/>
    <circle cx="164" cy="626" r="128" fill="#7CC5FF" fill-opacity="0.06"/>
  </g>
  <rect width="1600" height="1200" fill="url(#vignette)"/>
  <defs>
    <radialGradient id="bgGlow" cx="0" cy="0" r="1" gradientUnits="userSpaceOnUse" gradientTransform="translate(1070 360) rotate(126) scale(980 1190)">
      <stop stop-color="#164C94"/>
      <stop offset="0.34" stop-color="#0A1B34"/>
      <stop offset="1" stop-color="#050914"/>
    </radialGradient>
    <linearGradient id="cardFill" x1="108" y1="54" x2="1024" y2="735" gradientUnits="userSpaceOnUse">
      <stop stop-color="#202A37"/>
      <stop offset="0.45" stop-color="#101722"/>
      <stop offset="1" stop-color="#070B12"/>
    </linearGradient>
    <radialGradient id="vignette" cx="0" cy="0" r="1" gradientUnits="userSpaceOnUse" gradientTransform="translate(810 578) rotate(90) scale(700 980)">
      <stop stop-color="#000000" stop-opacity="0"/>
      <stop offset="0.7" stop-color="#000000" stop-opacity="0.22"/>
      <stop offset="1" stop-color="#000000" stop-opacity="0.68"/>
    </radialGradient>
    <filter id="cardShadow" x="210" y="-20" width="1392" height="1044" filterUnits="userSpaceOnUse" color-interpolation-filters="sRGB">
      <feFlood flood-opacity="0" result="BackgroundImageFix"/>
      <feColorMatrix in="SourceAlpha" type="matrix" values="0 0 0 0 0 0 0 0 0 0 0 0 0 0 0 0 0 0 127 0" result="hardAlpha"/>
      <feOffset dy="44"/>
      <feGaussianBlur stdDeviation="46"/>
      <feComposite in2="hardAlpha" operator="out"/>
      <feColorMatrix type="matrix" values="0 0 0 0 0 0 0 0 0 0.031 0 0 0 0 0.087 0 0 0 0.7 0"/>
      <feBlend mode="normal" in2="BackgroundImageFix" result="effect1_dropShadow"/>
      <feBlend mode="normal" in="SourceGraphic" in2="effect1_dropShadow" result="shape"/>
    </filter>
    <filter id="markShadow" x="206" y="94" width="744" height="542" filterUnits="userSpaceOnUse" color-interpolation-filters="sRGB">
      <feFlood flood-opacity="0" result="BackgroundImageFix"/>
      <feColorMatrix in="SourceAlpha" type="matrix" values="0 0 0 0 0 0 0 0 0 0 0 0 0 0 0 0 0 0 127 0" result="hardAlpha"/>
      <feOffset dy="12"/>
      <feGaussianBlur stdDeviation="12"/>
      <feComposite in2="hardAlpha" operator="out"/>
      <feColorMatrix type="matrix" values="0 0 0 0 0.006 0 0 0 0 0.018 0 0 0 0 0.045 0 0 0 0.75 0"/>
      <feBlend mode="normal" in2="BackgroundImageFix" result="effect1_dropShadow"/>
      <feBlend mode="normal" in="SourceGraphic" in2="effect1_dropShadow" result="shape"/>
    </filter>
  </defs>
</svg>
